<svg width="2960" height="607" xmlns="http://www.w3.org/2000/svg" xmlns:xlink="http://www.w3.org/1999/xlink" xml:space="preserve" overflow="hidden"><g transform="translate(-750 -1580)"><g><g><g><path d="M360.262 240.337C369.037 275.925 332.475 311.025 296.4 296.4 266.175 285.675 254.475 250.575 275.437 220.35 322.725 157.462 288.112 58.5 209.625 24.375 245.212 91.65 190.612 153.562 159.412 179.4 128.212 205.237 107.25 232.05 100.912 247.65 69.225 324.675 116.512 398.287 148.687 415.837 134.062 382.687 120.412 319.312 177.937 259.837 177.937 259.837 161.362 323.212 197.437 367.087 233.512 410.962 233.025 443.625 233.025 443.625 289.087 443.625 342.225 409.987 364.65 354.9 381.712 322.237 383.175 270.562 360.262 240.337" fill="#C00000" transform="matrix(1 0 0 1.00214 1807 1591)"/></g></g></g><text fill="#FFFFFF" font-family="Open Sans,Open Sans_MSFontService,sans-serif" font-weight="700" font-size="527" transform="matrix(1 0 0 1 762.869 2033)">S</text><text fill="#FFFFFF" font-family="Open Sans,Open Sans_MSFontService,sans-serif" font-weight="700" font-size="527" transform="matrix(1 0 0 1 1053.34 2033)">e</text><text fill="#FFFFFF" font-family="Open Sans,Open Sans_MSFontService,sans-serif" font-weight="700" font-size="527" transform="matrix(1 0 0 1 1365 2033)">m</text><text fill="#FFFFFF" font-family="Open Sans,Open Sans_MSFontService,sans-serif" font-weight="700" font-size="527" transform="matrix(1 0 0 1 2203.43 2033)">ntifyr</text></g></svg>
