<svg width="136" height="136" xmlns="http://www.w3.org/2000/svg" xmlns:xlink="http://www.w3.org/1999/xlink" xml:space="preserve" overflow="hidden"><g transform="translate(-102 -69)"><path d="M206.692 138.842C209.242 149.183 198.617 159.383 188.133 155.133 179.35 152.017 175.95 141.817 182.042 133.033 195.783 114.758 185.725 86 162.917 76.0833 173.258 95.6333 157.392 113.625 148.325 121.133 139.258 128.642 133.167 136.433 131.325 140.967 122.117 163.35 135.858 184.742 145.208 189.842 140.958 180.208 136.992 161.792 153.708 144.508 153.708 144.508 148.892 162.925 159.375 175.675 169.858 188.425 169.717 197.917 169.717 197.917 186.008 197.917 201.45 188.142 207.967 172.133 212.925 162.642 213.35 147.625 206.692 138.842" fill="#C00000"/></g></svg>