<svg xmlns="http://www.w3.org/2000/svg" viewBox="0 0 24 24" aria-hidden="true"><path fill="currentColor" fill-rule="evenodd" clip-rule="evenodd" d="M12 .297c-6.63 0-12 5.373-12 12 0 5.303 3.438 9.8 8.205 11.385.6.113.82-.258.82-.577 0-.285-.01-1.04-.015-2.04-3.338.724-4.042-1.61-4.042-1.61-.546-1.387-1.333-1.756-1.333-1.756-1.09-.745.083-.729.083-.729 1.205.084 1.84 1.236 1.84 1.236 1.07 1.835 2.807 1.305 3.492.998.108-.776.418-1.305.762-1.605-2.665-.305-5.467-1.334-5.467-5.93 0-1.31.467-2.38 1.236-3.22-.124-.303-.535-1.524.117-3.176 0 0 1.008-.322 3.3 1.23.96-.267 1.98-.4 3-.405 1.02.005 2.04.138 3 .405 2.29-1.552 3.297-1.23 3.297-1.23.653 1.652.242 2.873.118 3.176.77.84 1.235 1.91 1.235 3.22 0 4.61-2.807 5.624-5.48 5.92.43.37.823 1.103.823 2.222 0 1.605-.015 2.898-.015 3.293 0 .322.218.694.825.576C20.565 22.092 24 17.595 24 12.297c0-6.627-5.373-12-12-12"/></svg>
